<?xml version="1.0" encoding="UTF-8" standalone="no"?>
<!DOCTYPE svg PUBLIC "-//W3C//DTD SVG 1.1//EN" "http://www.w3.org/Graphics/SVG/1.1/DTD/svg11.dtd">
<svg width="100%" height="100%" viewBox="0 0 100 100" version="1.1" xmlns="http://www.w3.org/2000/svg" xmlns:xlink="http://www.w3.org/1999/xlink" xml:space="preserve" xmlns:serif="http://www.serif.com/" style="fill-rule:evenodd;clip-rule:evenodd;stroke-linejoin:round;stroke-miterlimit:2;">
    <g transform="matrix(1,0,0,1,-2053.44,-2563.54)">
        <g id="dh-icon-sq" serif:id="dh icon sq" transform="matrix(0.520833,0,0,0.925926,2053.44,2562.35)">
            <rect x="0" y="0" width="1920" height="1080" style="fill:none;"/>
            <g transform="matrix(0.192228,0,0,0.108128,-2.84217e-13,-275.91)">
                <path d="M998.814,2563.54L0,2563.54L0,3562.35L998.814,3562.35L998.814,2563.54ZM460.969,3280.08C432.925,3299.14 399.07,3310.29 362.633,3310.29C265.931,3310.29 187.421,3231.78 187.421,3135.08C187.421,3038.38 265.931,2959.87 362.633,2959.87C399.07,2959.87 432.925,2971.01 460.969,2990.08L460.969,2762.03L537.844,2762.03L537.844,2990.08C537.844,2990.08 576.677,2959.87 636.181,2959.87C723.288,2959.87 811.393,3028.63 811.393,3135.08L811.393,3310.29L734.518,3310.29L734.518,3135.08C734.518,3074.41 683.272,3036.74 636.181,3036.74C589.09,3036.74 537.844,3075.44 537.844,3135.08L537.844,3310.29L460.969,3310.29L460.969,3280.08ZM460.967,3134.44L460.969,3135.08C460.969,3189.35 416.906,3233.42 362.633,3233.42C308.359,3233.42 264.296,3189.35 264.296,3135.08C264.296,3080.81 308.359,3036.74 362.633,3036.74C416.694,3036.74 460.625,3080.46 460.967,3134.44Z" style="fill:white;"/>
            </g>
        </g>
    </g>
</svg>
